<svg version="1" xmlns="http://www.w3.org/2000/svg" width="346.667" height="346.667" viewBox="0 0 260 260"><path d="M126.8 12.7c1.2.2 3.2.2 4.5 0 1.2-.2.2-.4-2.3-.4s-3.5.2-2.2.4zm-10 1c.7.3 1.6.2 1.9-.1.4-.3-.2-.6-1.3-.5-1.1 0-1.4.3-.6.6zm45.2 8.8c1.4.8 3 1.4 3.5 1.4.6 0-.1-.6-1.5-1.4-1.4-.8-2.9-1.4-3.5-1.4-.5 0 .1.6 1.5 1.4zm-68.1 1.2c-1.3 1.6-1.2 1.7.4.4.9-.7 1.7-1.5 1.7-1.7 0-.8-.8-.3-2.1 1.3zm81.9 1c.7.3 1.6.2 1.9-.1.4-.3-.2-.6-1.3-.5-1.1 0-1.4.3-.6.6zm-87.9 4l-3.4 3.8 3.8-3.4c2-1.9 3.7-3.6 3.7-3.8 0-.8-.8 0-4.1 3.4zm93.1-2.3c0 .2.8 1 1.8 1.7 1.5 1.3 1.6 1.2.3-.4s-2.1-2.1-2.1-1.3zm-98.1 8.3c-1.3 1.6-1.2 1.7.4.4.9-.7 1.7-1.5 1.7-1.7 0-.8-.8-.3-2.1 1.3zm102.4 1.8c0 2.2.2 3 .4 1.7.2-1.2.2-3 0-4-.3-.9-.5.1-.4 2.3zM28.5 41.6c-10.2 3.6-16.6 13.1-17.3 25.6-.8 13.5 4.3 23.6 14.4 28.8 9.4 4.8 23.4 2.8 31.2-4.3 2.5-2.4 2.9-6.2.7-7.1-.9-.3-4.2.8-7.4 2.5-7.6 4-12.8 4.7-18.6 2.4-8.2-3.1-12.1-11-11.3-23.2.4-6.1 1-8.2 3.4-11.6 4-5.7 8.5-7.9 15.2-7.4 6.2.4 9.5 3 11.5 9.1 1.2 3.6 1.8 4.1 4.3 4.1h2.9V51c0-9.2-.1-9.5-2.4-9.8-1.3-.2-2.8.1-3.3.6-.6.6-2.6.5-5.5-.4-5.8-1.7-12.6-1.7-17.8.2zm57.4-.7c-1.4.5-3.7 1.6-5.1 2.5-1.3.9-2.8 1.4-3.1 1.1-.4-.3-.5-.2-.3.1.3.3-.4 1.6-1.5 2.7-1.1 1.2-3.2 4.6-4.7 7.7-2.3 4.8-2.7 6.7-2.7 14.5.1 9.9 1.8 15.2 7 21.3 5.6 6.7 16.2 9.7 25.2 7.1 6.6-1.8 14.4-9.6 16.8-16.8 2.7-8.2 1.8-20.9-1.9-27.8-2.5-4.6-2.7-5.5-1.5-7 1.3-1.6 1.2-1.7-.2-.5-1.4 1.1-2.5.7-6.9-2-4.3-2.7-6.4-3.3-11.9-3.5-3.6-.1-7.8.1-9.2.6zM99.5 48c3.3 1.3 7.5 5.8 7.5 8.1 0 .9.6 1.9 1.3 2.1 1.9.7 1.9 18.3 0 23-2 5.1-7.2 9.4-12.2 10.3-5.8 1-12.8-2.6-15.8-8-4.6-8.3-3.9-23.3 1.3-30.2 4.2-5.6 11.5-7.7 17.9-5.3z"/><path d="M107.1 68.6c0 1.1.3 1.4.6.6.3-.7.2-1.6-.1-1.9-.3-.4-.6.2-.5 1.3zm18.7-27.9c.7.3 1.6.2 1.9-.1.4-.3-.2-.6-1.3-.5-1.1 0-1.4.3-.6.6zm5.7.1c-5.3 1.2-6.2 5.7-1.5 7.3l3 1.1v40.4l-3 1.1c-2 .7-3 1.8-3 3.2 0 3.6 3.4 4.4 17.2 3.9 11.3-.5 13.5-.9 18.4-3.3 9-4.4 13.4-12.8 13.4-25.5 0-8.4-1.3-13-5.3-18.2-5.5-7.4-10.1-8.9-30.7-10.1-3.6-.2-7.4-.2-8.5.1zM158.6 51c2.6 1.1 5 3.2 6.5 5.6 2.1 3.4 2.4 5.1 2.4 12.9 0 7.8-.3 9.5-2.4 12.9-3.1 5-8.6 7.4-17.7 7.8l-6.9.3-.3-20.4c-.2-15.7.1-20.7 1-21.3 1.9-1.2 12.6.1 17.4 2.2zm24.6-7.1c-1 2.8-.8 3 2 4 1.7.6 3.9 1.1 4.9 1.1 1.8 0 1.9 1.2 1.9 20.3v20.3l-4.2 1c-3.3.7-4.4 1.4-4.6 3.1-.3 1.7.3 2.6 2.3 3.3 4 1.5 41.7 1.3 43.9-.3 1.4-1 1.6-2.6 1.4-10.2-.3-8-.5-9-2.2-9.3-2.8-.6-4.6 2.5-4.6 8V90h-24V70h11.9l.3 3.2c.2 2.8.7 3.3 2.8 3.3 2.5 0 2.5 0 2.5-9.5 0-9.4 0-9.5-2.4-9.5-1.9 0-2.7.7-3.3 3.2-.8 3.2-1 3.3-6.3 3.3H200V49h23.9l.3 5.1c.3 5.5 2.1 7.8 5.2 6.6 2.3-.9 2.4-18.2 0-19.1-.9-.3-11.4-.6-23.4-.6h-21.8l-1 2.9zm-4.8 7.3l-1.9 2.3 2.3-1.9c2.1-1.8 2.7-2.6 1.9-2.6-.2 0-1.2 1-2.3 2.2zM122 96.4c0 .2.8 1 1.8 1.7 1.5 1.3 1.6 1.2.3-.4s-2.1-2.1-2.1-1.3zM84 100c.6 1.1 1.3 2 1.6 2 .2 0 0-.9-.6-2s-1.3-2-1.6-2c-.2 0 0 .9.6 2zm43 3.4c0 .2.8 1 1.8 1.7 1.5 1.3 1.6 1.2.3-.4s-2.1-2.1-2.1-1.3zm3 4c0 .2.8 1 1.8 1.7 1.5 1.3 1.6 1.2.3-.4s-2.1-2.1-2.1-1.3zm-38.9 6.9c-1.3 2.1-1.2 2.1.5.5 1-1 1.6-2 1.3-2.2-.3-.3-1.1.5-1.8 1.7zm43.9.1c0 .2.8 1 1.8 1.7 1.5 1.3 1.6 1.2.3-.4s-2.1-2.1-2.1-1.3zm-48.6 3.8l-1.9 2.3 2.3-1.9c2.1-1.8 2.7-2.6 1.9-2.6-.2 0-1.2 1-2.3 2.2zm51.6.2c0 .2.8 1 1.8 1.7 1.5 1.3 1.6 1.2.3-.4s-2.1-2.1-2.1-1.3zm-63 10.3l-8.5 8.8 8.8-8.5c8.1-7.9 9.2-9 8.4-9-.1 0-4.1 3.9-8.7 8.7zm128.3-7c1.5.2 3.7.2 5 0 1.2-.2 0-.4-2.8-.4-2.7 0-3.8.2-2.2.4zm8.5 0c.7.3 1.6.2 1.9-.1.4-.3-.2-.6-1.3-.5-1.1 0-1.4.3-.6.6zm-15.3 1.3c-.3.6.1.7.9.4 1.8-.7 2.1-1.4.7-1.4-.6 0-1.3.4-1.6 1zm24 2c1 1.1 2 2 2.3 2 .3 0-.3-.9-1.3-2s-2-2-2.3-2c-.3 0 .3.9 1.3 2zm-27.6.7c-1.3 1.6-1.2 1.7.4.4.9-.7 1.7-1.5 1.7-1.7 0-.8-.8-.3-2.1 1.3zm-49.9-.3c0 .2.8 1 1.8 1.7 1.5 1.3 1.6 1.2.3-.4s-2.1-2.1-2.1-1.3zm3 4c0 .2.8 1 1.8 1.7 1.5 1.3 1.6 1.2.3-.4s-2.1-2.1-2.1-1.3zm42.5 3.7c-.4.6-.5 1.2-.2 1.5.2.3.7-.2 1-1.1.7-1.7.1-2-.8-.4zm36.8 5.4c0 2.7.2 3.8.4 2.2.2-1.5.2-3.7 0-5-.2-1.2-.4 0-.4 2.8zm-74.3-2.1c0 .2.8 1 1.8 1.7 1.5 1.3 1.6 1.2.3-.4s-2.1-2.1-2.1-1.3zm-20 2.6c-4.1.7-7.6 2.5-10.7 5.3-2 1.7-2.5 1.8-4 .6-1.6-1.3-1.7-1.2-.4.4 1.2 1.5 1.1 2.4-1.2 6.6-3.4 6.1-4.3 10.6-6.6 32-1.9 17-1.7 22.1.9 22.1 3.6 0 10.2-5.7 11.5-9.8.9-3.1-.7-2.7-3.3.8-4.9 6.5-5.2 3.5-2.2-22.8 2.8-25.1 4.9-29.6 13.6-29.7 3.4-.1 5.1-.7 7-2.7 2.3-2.3 2.4-2.6.7-3-1-.2-3.4-.1-5.3.2zm-23.1 1.7c-1.3 1.6-1.2 1.7.4.4.9-.7 1.7-1.5 1.7-1.7 0-.8-.8-.3-2.1 1.3zm97.4-.1c-5.1 2.5-11.8 10.4-14.1 16.6-1.4 3.7-2.9 12.8-4.5 27-1.3 11.7-2.3 21.4-2.2 21.6.2.2 1.6-.3 3.3-1.2 2.6-1.3 3-2.1 3.5-7.5.8-9.8 6.7-19.9 12.8-22 4.2-1.4 4.5-.1 2.9 13.3-1.9 17.4-.9 20.1 6 15.4 4.6-3.2 7.7-7.5 6.3-8.9-.8-.8-1.6-.2-2.9 2-1 1.7-2.4 3.3-3.1 3.5-1.7.7-1.7-3.3.2-16.8 1.6-11.5 1.1-14.6-2.5-14.6-1.1 0-2-.4-2-.9 0-1.1-4.6 2.7-11.2 9.1-2.6 2.7-4.8 4.2-4.8 3.5 0-5.8 3.3-25.6 4.9-29.1 2.2-5.1 6.8-8.1 11-7.3 1.8.4 3.4-.2 5.4-1.8 1.5-1.3 2.7-2.7 2.7-3 0-1.2-8.7-.4-11.7 1.1zm-93.3-.2c0 .2.8 1 1.8 1.7 1.5 1.3 1.6 1.2.3-.4s-2.1-2.1-2.1-1.3zm42 0c0 .2.8 1 1.8 1.7 1.5 1.3 1.6 1.2.3-.4s-2.1-2.1-2.1-1.3zm-91.7 2.8c-1.5 2-2.5 3.8-2 3.8.3 0 1.2-1.1 2.1-2.5 1.7-2.6 1.6-3.5-.1-1.3zm38.2 4l-5 5.3 5.3-5c4.8-4.6 5.7-5.5 4.9-5.5-.1 0-2.5 2.4-5.2 5.2zm123.1-.5c-.6 1.4-.5 1.5.5.6.7-.7 1-1.5.7-1.8-.3-.3-.9.2-1.2 1.2zm-64.6.7c0 .2.8 1 1.8 1.7 1.5 1.3 1.6 1.2.3-.4s-2.1-2.1-2.1-1.3zm3 4c0 .2.8 1 1.8 1.7 1.5 1.3 1.6 1.2.3-.4s-2.1-2.1-2.1-1.3zm-105.5 1.7c-.4.6-.5 1.2-.2 1.5.2.3.7-.2 1-1.1.7-1.7.1-2-.8-.4z"/><path d="M121 152.4c0 .2.8 1 1.8 1.7 1.5 1.3 1.6 1.2.3-.4s-2.1-2.1-2.1-1.3zm20.3 1.9c-2.8 1.9-7.1 9.2-6 10.3.7.8 9.6-8.2 10.2-10.4.8-2.7-.1-2.7-4.2.1zm-17.3 2.1c0 .2.8 1 1.8 1.7 1.5 1.3 1.6 1.2.3-.4s-2.1-2.1-2.1-1.3zm43 2c0 .2.8 1 1.8 1.7 1.5 1.3 1.6 1.2.3-.4s-2.1-2.1-2.1-1.3zm-40 2c0 .2.8 1 1.8 1.7 1.5 1.3 1.6 1.2.3-.4s-2.1-2.1-2.1-1.3zm105.8 1.8c-2.3.8-2.8 1.5-2.8 4.4 0 2.9-.3 3.4-2.3 3.4-2.2 0-5.7 2.7-5.7 4.3 0 .4 1.6.7 3.6.7h3.7l-.7 4.7c-.4 2.7-.9 8.8-1.3 13.8-.5 8.3-.4 9.2 1.5 10.9 1.5 1.3 2.9 1.6 4.8 1.2 3.3-.9 9.8-7.1 8.9-8.6-.4-.7-1.6-.1-3.1 1.5-1.3 1.5-3.2 2.5-4.2 2.3-1.4-.3-1.7-1.5-1.6-8.3 0-4.4.4-10.1.8-12.8l.7-4.7h5.8c4.8 0 6.1-.4 8.1-2.5l2.3-2.5h-15.2l-.3-4.3c-.3-4.3-.4-4.4-3-3.5zm-62.8.2c0 .2.8 1 1.8 1.7 1.5 1.3 1.6 1.2.3-.4s-2.1-2.1-2.1-1.3zm-117.9 3.2c0 1.1.3 1.4.6.6.3-.7.2-1.6-.1-1.9-.3-.4-.6.2-.5 1.3zm77.9-1.2c0 .2.8 1 1.8 1.7 1.5 1.3 1.6 1.2.3-.4s-2.1-2.1-2.1-1.3zm-.7 8.2c-2.4 2.3-4.3 4.9-4.3 5.8 0 2.3.8 2 3.7-1.5 1.4-1.6 2.9-2.7 3.4-2.2.4.4-.1 6.8-1.1 14.2-2.4 17.2-1.6 19.5 5.6 15 3.5-2.1 8.1-8.5 7-9.7-.4-.3-1.8.8-3.2 2.6-4.9 6.2-5.4 3.7-2.9-13.1.9-5.6 1.3-11.2 1.1-12.3-1-3.9-4.7-3.4-9.3 1.2zm41.7-3.4c-6.7.9-13 3.9-16.6 8-2.6 2.8-7.4 10.4-6.9 10.9.2.2 0 2.4-.5 4.9-.6 3-.4 5.7.5 8.2l1.2 3.7-5.1 4.9c-2.8 2.7-5.2 5.8-5.4 6.8-1.4 8.8-1.3 10.2.3 13.3 4.4 8.7 18.2 7.4 27.6-2.6 6.8-7.1 7.1-8.3 10-39.8 1.4-14.8 1.8-19.6 1.5-19.4 0 .1-3 .6-6.6 1.1zm-.3 6.4c1.1 2.8-1.7 11.8-5.1 16.5-3.2 4.4-10 8.8-11.4 7.4-1.3-1.3-.5-12.5 1.2-17 1-2.5 2.9-5.4 4.3-6.5 3.2-2.5 10.1-2.8 11-.4zm-2.4 30.4c-2 19.7-5.3 25-15.2 25-4.9 0-9.6-3.6-10.5-8-1.2-6.4 5.2-16.3 11.7-18.1 2.9-.8 5.7-2.8 9.7-6.9 3-3.2 5.6-5.7 5.6-5.6.1 0-.5 6.2-1.3 13.6zM51.1 170.6c0 1.1.3 1.4.6.6.3-.7.2-1.6-.1-1.9-.3-.4-.6.2-.5 1.3zm36 2c0 1.1.3 1.4.6.6.3-.7.2-1.6-.1-1.9-.3-.4-.6.2-.5 1.3zM50.3 184c0 4.1.2 5.8.4 3.7.2-2 .2-5.4 0-7.5-.2-2-.4-.3-.4 3.8zm90.7-4.6c0 .2.8 1 1.8 1.7 1.5 1.3 1.6 1.2.3-.4s-2.1-2.1-2.1-1.3zM87.2 185c0 1.4.2 1.9.5 1.2.2-.6.2-1.8 0-2.5-.3-.6-.5-.1-.5 1.3zm56.8-1.6c0 .2.8 1 1.8 1.7 1.5 1.3 1.6 1.2.3-.4s-2.1-2.1-2.1-1.3zm54.6 8.1c-.9 2.6-.7 3.2.5 1.2.6-1 .9-2.1.6-2.3-.2-.3-.7.2-1.1 1.1zm-147.5 5.1c0 1.1.3 1.4.6.6.3-.7.2-1.6-.1-1.9-.3-.4-.6.2-.5 1.3zm146.9 2.8c0 .2.8 1 1.8 1.7 1.5 1.3 1.6 1.2.3-.4s-2.1-2.1-2.1-1.3zm-145.9 2.2c0 1.1.3 1.4.6.6.3-.7.2-1.6-.1-1.9-.3-.4-.6.2-.5 1.3zm42.4 1.4c1 1.1 2 2 2.3 2 .3 0-.3-.9-1.3-2s-2-2-2.3-2c-.3 0 .3.9 1.3 2zm108.5 3.4c0 .2.8 1 1.8 1.7 1.5 1.3 1.6 1.2.3-.4s-2.1-2.1-2.1-1.3zM101.5 210c1 1.1 2 2 2.3 2 .3 0-.3-.9-1.3-2s-2-2-2.3-2c-.3 0 .3.9 1.3 2zm6.2 4.1c.7.7 1.5 1 1.8.7.3-.3-.2-.9-1.2-1.2-1.4-.6-1.5-.5-.6.5zm101.2.2c.5.5 2.1.7 3.7.5 2.7-.3 2.6-.4-.8-.9-2.2-.3-3.4-.1-2.9.4zM58 217c.6 1.1 1.3 2 1.6 2 .2 0 0-.9-.6-2s-1.3-2-1.6-2c-.2 0 0 .9.6 2zm161.3.3c1.2 1.3 2.4 2.2 2.6 2 .6-.4-3-4.3-4-4.3-.5 0 .2 1 1.4 2.3zm-87.5-.6c.7.3 1.6.2 1.9-.1.4-.3-.2-.6-1.3-.5-1.1 0-1.4.3-.6.6zm-9.5 1c1.5.2 3.7.2 5 0 1.2-.2 0-.4-2.8-.4-2.7 0-3.8.2-2.2.4zm101 10.8c0 2.7.2 3.8.4 2.2.2-1.5.2-3.7 0-5-.2-1.2-.4 0-.4 2.8zm-154.3 3c3 3 5.7 5.5 5.9 5.5.3 0-1.9-2.5-4.9-5.5-3-3-5.7-5.5-5.9-5.5-.3 0 1.9 2.5 4.9 5.5zm103.4-3.3l-1.9 2.3 2.3-2c2-1.7 2.6-1.7 4.5-.5 2 1.2 2.1 1.2.8-.3-1.8-2.3-3.4-2.1-5.7.5zm-4.5 3.5c-1.3 1.6-1.2 1.7.4.4 1.6-1.3 2.1-2.1 1.3-2.1-.2 0-1 .8-1.7 1.7zm11.1-1.3c0 .2.8 1 1.8 1.7 1.5 1.3 1.6 1.2.3-.4s-2.1-2.1-2.1-1.3zm4 5c0 .2.8 1 1.8 1.7 1.5 1.3 1.6 1.2.3-.4s-2.1-2.1-2.1-1.3zm-107 2c0 .2.8 1 1.8 1.7 1.5 1.3 1.6 1.2.3-.4s-2.1-2.1-2.1-1.3zm79.4 2.2c-1.8 1.4-1.8 1.5.4.4 1.2-.6 2.2-1.3 2.2-1.5 0-.8-.5-.6-2.6 1.1zm32.1 1.4c1 1.1 2 2 2.3 2 .3 0-.3-.9-1.3-2s-2-2-2.3-2c-.3 0 .3.9 1.3 2zm-37.5 1c-.8.5-1 1-.5 1 .6 0 1.7-.5 2.5-1s1.1-1 .5-1c-.5 0-1.7.5-2.5 1zm68.9.7c-1.3 1.6-1.2 1.7.4.4 1.6-1.3 2.1-2.1 1.3-2.1-.2 0-1 .8-1.7 1.7zM86 244c.8.5 2 1 2.5 1 .6 0 .3-.5-.5-1s-1.9-1-2.5-1c-.5 0-.3.5.5 1zm105.7.1c.7.7 1.5 1 1.8.7.3-.3-.2-.9-1.2-1.2-1.4-.6-1.5-.5-.6.5zm-91.9 4.6c.7.3 1.6.2 1.9-.1.4-.3-.2-.6-1.3-.5-1.1 0-1.4.3-.6.6zm30 0c.7.3 1.6.2 1.9-.1.4-.3-.2-.6-1.3-.5-1.1 0-1.4.3-.6.6zm-23.5 1c.9.2 2.3.2 3 0 .6-.3-.1-.5-1.8-.5-1.6 0-2.2.2-1.2.5zm15 0c.9.2 2.5.2 3.5 0 .9-.3.1-.5-1.8-.5-1.9 0-2.7.2-1.7.5z"/></svg>